 <svg width="100%" height="100%" viewBox="0 0 400 600" version="1.1" xmlns="http://www.w3.org/2000/svg" xmlns:xlink="http://www.w3.org/1999/xlink">
  <g stroke="none" stroke-width="1" fill="none" fill-rule="evenodd">

    <rect fill="#FFFFFF" x="0" y="0" width="400" height="600"></rect>
    <path data-type="bg" d="M399.999003,318.000276 C336.377874,335.593111 269.299931,345 199.999967,345 C130.700028,345 63.6221067,335.593117 0.000997315636,318.000294 L399.999003,318.000276 Z M400,-1 L400,318 L3.63797881e-12,318 L3.69482223e-12,-1 L400,-1 Z" fill="#DC8C00"></path>

    <g transform="translate(69, 158)">
      <rect x="0" y="0" width="262" height="262" rx="20"></rect>
      <rect x="0" y="0" width="262" height="262" rx="20" fill="#FFF" stroke="#ccc"></rect>
      <g transform="translate(16, 16)">
        <image x="0" y="0" width="230" height="230" xlink:href="" data-type="qr"></image>
      </g>
    </g>
    
    <text font-family="微软雅黑" font-size="42" font-weight="500" fill="#FFFFFF" style="dominant-baseline:middle;text-anchor:middle;">
      <tspan x="200" y="97" data-type="title" data-max="73" data-len="7"></tspan>
      <tspan x="200" y="97" data-type="title-placeholder" data-max="73" data-len="7" fill="transparent">.</tspan>
    </text>

    <g font-family="微软雅黑" font-size="20" style="dominant-baseline:middle;text-anchor:middle;" font-weight="400" fill="#000000">
      <text>
        <tspan data-type="field" data-len="17" data-max="85" data-count="1" x="200" y="510"></tspan>
        <tspan data-type="field-placeholder1" data-max="85" x="200" y="510" data-len="17" fill="transparent">.</tspan>
      </text>

      <text>
        <tspan data-type="field" data-len="17" data-max="85" data-count="2" x="200" y="480"></tspan>
        <tspan data-type="field-placeholder2" data-max="85" x="200" y="480" data-len="17" fill="transparent">.</tspan>
      </text>
      <text>
        <tspan data-type="field" data-len="17" data-max="85" data-count="2" x="200" y="540"></tspan>
        <tspan data-type="field-placeholder2" data-max="85" x="200" y="540" data-len="17" fill="transparent">.</tspan>
      </text>

      <text>
        <tspan data-type="field" data-len="17" data-max="85" data-count="3" x="200" y="464"></tspan>
        <tspan data-type="field-placeholder3" data-max="85" x="200" y="464" data-len="17" fill="transparent">.</tspan>
      </text>
      <text>
        <tspan data-type="field" data-len="17" data-max="85" data-count="3" x="200" y="506"></tspan>
        <tspan data-type="field-placeholder3" data-max="85" x="200" y="506" data-len="17" fill="transparent">.</tspan>
      </text>
      <text>
        <tspan data-type="field" data-len="17" data-max="85" data-count="3" x="200" y="548"></tspan>
        <tspan data-type="field-placeholder3" data-max="85" x="200" y="548" data-len="17" fill="transparent">.</tspan>
      </text>
    </g>
  </g>
</svg>